<mxfile host="app.diagrams.net" agent="Mozilla/5.0 (Windows NT 10.0; Win64; x64) AppleWebKit/537.36 (KHTML, like Gecko) Chrome/131.0.0.0 Safari/537.36" version="25.0.3">
  <diagram name="Page-1" id="nVcbKq7x9h6HqYYBK6t3">
    <mxGraphModel dx="1588" dy="892" grid="1" gridSize="10" guides="1" tooltips="1" connect="1" arrows="1" fold="1" page="1" pageScale="1" pageWidth="850" pageHeight="1100" math="0" shadow="0">
      <root>
        <mxCell id="0" />
        <mxCell id="1" parent="0" />
        <mxCell id="c7cechd5nm6Yp6Lk2WkC-1" value="PM" style="rounded=1;html=1;fillColor=#000000;fontColor=#ffffff;fontFamily=Verdana;" parent="1" vertex="1">
          <mxGeometry x="140" y="100" width="150" height="30" as="geometry" />
        </mxCell>
        <mxCell id="c7cechd5nm6Yp6Lk2WkC-2" value="DEPT. KEUANGAN" style="rounded=1;html=1;fillColor=#000000;fontColor=#ffffff;fontFamily=Verdana;" parent="1" vertex="1">
          <mxGeometry x="340" y="100" width="150" height="30" as="geometry" />
        </mxCell>
        <mxCell id="c7cechd5nm6Yp6Lk2WkC-3" value="PELANGGAN" style="rounded=1;html=1;fillColor=#000000;fontColor=#ffffff;fontFamily=Verdana;" parent="1" vertex="1">
          <mxGeometry x="540" y="100" width="150" height="30" as="geometry" />
        </mxCell>
        <mxCell id="c7cechd5nm6Yp6Lk2WkC-6" value="PM Mengecek tanggal dan memastikan proyek masih Reachable" style="rounded=1;whiteSpace=wrap;html=1;fontFamily=Verdana;dashed=1;" parent="1" vertex="1">
          <mxGeometry x="140" y="140" width="150" height="70" as="geometry" />
        </mxCell>
        <mxCell id="c7cechd5nm6Yp6Lk2WkC-7" style="edgeStyle=orthogonalEdgeStyle;rounded=0;orthogonalLoop=1;jettySize=auto;html=1;exitX=0.5;exitY=1;exitDx=0;exitDy=0;" parent="1" edge="1">
          <mxGeometry relative="1" as="geometry">
            <mxPoint x="660" y="220" as="sourcePoint" />
            <mxPoint x="660" y="220" as="targetPoint" />
          </mxGeometry>
        </mxCell>
        <mxCell id="c7cechd5nm6Yp6Lk2WkC-10" value="&lt;font face=&quot;Verdana&quot;&gt;DEPT.Keuangan Menerima pengajuan Invoice&lt;/font&gt;" style="rounded=1;whiteSpace=wrap;html=1;dashed=1;" parent="1" vertex="1">
          <mxGeometry x="340" y="200" width="150" height="70" as="geometry" />
        </mxCell>
        <mxCell id="c7cechd5nm6Yp6Lk2WkC-12" value="&lt;font face=&quot;Verdana&quot;&gt;DEPT.Keuangan Mengeluarkan Invoice di aplikasi File Manager&lt;/font&gt;" style="rounded=1;whiteSpace=wrap;html=1;dashed=1;" parent="1" vertex="1">
          <mxGeometry x="340" y="310" width="150" height="70" as="geometry" />
        </mxCell>
        <mxCell id="c7cechd5nm6Yp6Lk2WkC-13" value="&lt;font face=&quot;Verdana&quot;&gt;TIK Memastikan Sistem sudah otomatis melakuan pemindahan Data&lt;/font&gt;" style="rounded=1;whiteSpace=wrap;html=1;dashed=1;" parent="1" vertex="1">
          <mxGeometry x="740" y="410" width="150" height="80" as="geometry" />
        </mxCell>
        <mxCell id="c7cechd5nm6Yp6Lk2WkC-14" value="&lt;font face=&quot;Verdana&quot;&gt;DATA NEGOSIASI&lt;/font&gt;" style="rounded=1;whiteSpace=wrap;html=1;dashed=1;" parent="1" vertex="1">
          <mxGeometry x="930" y="160" width="150" height="80" as="geometry" />
        </mxCell>
        <mxCell id="c7cechd5nm6Yp6Lk2WkC-15" style="edgeStyle=orthogonalEdgeStyle;rounded=0;orthogonalLoop=1;jettySize=auto;html=1;exitX=0.5;exitY=0;exitDx=0;exitDy=0;entryX=0;entryY=0.5;entryDx=0;entryDy=0;" parent="1" source="c7cechd5nm6Yp6Lk2WkC-16" target="c7cechd5nm6Yp6Lk2WkC-14" edge="1">
          <mxGeometry relative="1" as="geometry" />
        </mxCell>
        <mxCell id="c7cechd5nm6Yp6Lk2WkC-16" value="&lt;font face=&quot;Verdana&quot;&gt;TIK Melakukan pengecekan error pada data ataupun file terkait&lt;/font&gt;" style="rounded=1;whiteSpace=wrap;html=1;dashed=1;" parent="1" vertex="1">
          <mxGeometry x="740" y="270" width="150" height="80" as="geometry" />
        </mxCell>
        <mxCell id="c7cechd5nm6Yp6Lk2WkC-17" value="" style="endArrow=classic;startArrow=classic;html=1;rounded=0;exitX=0.5;exitY=0;exitDx=0;exitDy=0;entryX=0.5;entryY=1;entryDx=0;entryDy=0;" parent="1" source="c7cechd5nm6Yp6Lk2WkC-13" target="c7cechd5nm6Yp6Lk2WkC-16" edge="1">
          <mxGeometry width="50" height="50" relative="1" as="geometry">
            <mxPoint x="420" y="460" as="sourcePoint" />
            <mxPoint x="470" y="410" as="targetPoint" />
          </mxGeometry>
        </mxCell>
        <mxCell id="c7cechd5nm6Yp6Lk2WkC-39" style="edgeStyle=orthogonalEdgeStyle;rounded=0;orthogonalLoop=1;jettySize=auto;html=1;entryX=0;entryY=0.5;entryDx=0;entryDy=0;" parent="1" source="c7cechd5nm6Yp6Lk2WkC-20" target="c7cechd5nm6Yp6Lk2WkC-10" edge="1">
          <mxGeometry relative="1" as="geometry" />
        </mxCell>
        <mxCell id="c7cechd5nm6Yp6Lk2WkC-20" value="PM Mengajukan Invoice kepada Departemen Keuangan" style="rounded=1;whiteSpace=wrap;html=1;fontFamily=Verdana;dashed=1;" parent="1" vertex="1">
          <mxGeometry x="140" y="320" width="150" height="70" as="geometry" />
        </mxCell>
        <mxCell id="c7cechd5nm6Yp6Lk2WkC-21" value="PM Menerima Invoice dan Penagihan dari Dept Keuangan" style="rounded=1;whiteSpace=wrap;html=1;fontFamily=Verdana;dashed=1;" parent="1" vertex="1">
          <mxGeometry x="140" y="410" width="150" height="70" as="geometry" />
        </mxCell>
        <mxCell id="c7cechd5nm6Yp6Lk2WkC-34" style="edgeStyle=orthogonalEdgeStyle;rounded=0;orthogonalLoop=1;jettySize=auto;html=1;entryX=0;entryY=0.5;entryDx=0;entryDy=0;" parent="1" source="c7cechd5nm6Yp6Lk2WkC-22" target="c7cechd5nm6Yp6Lk2WkC-31" edge="1">
          <mxGeometry relative="1" as="geometry" />
        </mxCell>
        <mxCell id="c7cechd5nm6Yp6Lk2WkC-22" value="PM Mengajukan Invoice Kepada Pelangan dan Menerima Payment Document&amp;nbsp;&lt;div&gt;Dari Pelanggan&lt;/div&gt;" style="rounded=1;whiteSpace=wrap;html=1;fontFamily=Verdana;dashed=1;" parent="1" vertex="1">
          <mxGeometry x="140" y="513" width="150" height="75" as="geometry" />
        </mxCell>
        <mxCell id="c7cechd5nm6Yp6Lk2WkC-23" value="TIK" style="rounded=1;html=1;fillColor=#000000;fontColor=#ffffff;fontFamily=Verdana;" parent="1" vertex="1">
          <mxGeometry x="740" y="100" width="150" height="30" as="geometry" />
        </mxCell>
        <mxCell id="c7cechd5nm6Yp6Lk2WkC-29" value="DOKUMEN" style="rounded=1;html=1;fillColor=#000000;fontColor=#ffffff;fontFamily=Verdana;" parent="1" vertex="1">
          <mxGeometry x="930" y="100" width="150" height="30" as="geometry" />
        </mxCell>
        <mxCell id="c7cechd5nm6Yp6Lk2WkC-42" value="" style="edgeStyle=orthogonalEdgeStyle;rounded=0;orthogonalLoop=1;jettySize=auto;html=1;" parent="1" source="c7cechd5nm6Yp6Lk2WkC-30" target="c7cechd5nm6Yp6Lk2WkC-21" edge="1">
          <mxGeometry relative="1" as="geometry" />
        </mxCell>
        <mxCell id="c7cechd5nm6Yp6Lk2WkC-30" value="&lt;font face=&quot;Verdana&quot;&gt;DEPT.Keuangan Mengajukan Penagihan dengan memberikan Invoice kepada PM&lt;/font&gt;" style="rounded=1;whiteSpace=wrap;html=1;dashed=1;" parent="1" vertex="1">
          <mxGeometry x="340" y="390" width="150" height="70" as="geometry" />
        </mxCell>
        <mxCell id="c7cechd5nm6Yp6Lk2WkC-35" style="edgeStyle=orthogonalEdgeStyle;rounded=0;orthogonalLoop=1;jettySize=auto;html=1;entryX=1;entryY=0.5;entryDx=0;entryDy=0;" parent="1" source="c7cechd5nm6Yp6Lk2WkC-31" target="c7cechd5nm6Yp6Lk2WkC-22" edge="1">
          <mxGeometry relative="1" as="geometry" />
        </mxCell>
        <mxCell id="c7cechd5nm6Yp6Lk2WkC-31" value="Pelanggan Menerima Invoice dan Penagihan dari PM" style="rounded=1;whiteSpace=wrap;html=1;fontFamily=Verdana;dashed=1;" parent="1" vertex="1">
          <mxGeometry x="540" y="513" width="150" height="75" as="geometry" />
        </mxCell>
        <mxCell id="c7cechd5nm6Yp6Lk2WkC-33" value="" style="edgeStyle=orthogonalEdgeStyle;rounded=0;orthogonalLoop=1;jettySize=auto;html=1;" parent="1" source="c7cechd5nm6Yp6Lk2WkC-32" target="c7cechd5nm6Yp6Lk2WkC-31" edge="1">
          <mxGeometry relative="1" as="geometry" />
        </mxCell>
        <mxCell id="c7cechd5nm6Yp6Lk2WkC-32" value="Pelanggan Melakukan Pembayaran dan mengirimkan dokumen kepada PM" style="rounded=1;whiteSpace=wrap;html=1;fontFamily=Verdana;dashed=1;" parent="1" vertex="1">
          <mxGeometry x="540" y="260" width="150" height="75" as="geometry" />
        </mxCell>
        <mxCell id="c7cechd5nm6Yp6Lk2WkC-40" value="" style="endArrow=classic;html=1;rounded=0;exitX=0.5;exitY=1;exitDx=0;exitDy=0;entryX=0.5;entryY=0;entryDx=0;entryDy=0;" parent="1" source="c7cechd5nm6Yp6Lk2WkC-10" target="c7cechd5nm6Yp6Lk2WkC-12" edge="1">
          <mxGeometry width="50" height="50" relative="1" as="geometry">
            <mxPoint x="410" y="300" as="sourcePoint" />
            <mxPoint x="460" y="250" as="targetPoint" />
          </mxGeometry>
        </mxCell>
        <mxCell id="c7cechd5nm6Yp6Lk2WkC-41" value="" style="endArrow=classic;html=1;rounded=0;exitX=0.5;exitY=1;exitDx=0;exitDy=0;entryX=0.5;entryY=0;entryDx=0;entryDy=0;" parent="1" source="c7cechd5nm6Yp6Lk2WkC-12" target="c7cechd5nm6Yp6Lk2WkC-30" edge="1">
          <mxGeometry width="50" height="50" relative="1" as="geometry">
            <mxPoint x="410" y="300" as="sourcePoint" />
            <mxPoint x="460" y="250" as="targetPoint" />
          </mxGeometry>
        </mxCell>
        <mxCell id="c7cechd5nm6Yp6Lk2WkC-43" value="" style="endArrow=classic;html=1;rounded=0;exitX=0.5;exitY=1;exitDx=0;exitDy=0;entryX=0.5;entryY=0;entryDx=0;entryDy=0;" parent="1" source="c7cechd5nm6Yp6Lk2WkC-21" target="c7cechd5nm6Yp6Lk2WkC-22" edge="1">
          <mxGeometry width="50" height="50" relative="1" as="geometry">
            <mxPoint x="410" y="300" as="sourcePoint" />
            <mxPoint x="460" y="250" as="targetPoint" />
          </mxGeometry>
        </mxCell>
        <mxCell id="c7cechd5nm6Yp6Lk2WkC-44" value="" style="rounded=0;whiteSpace=wrap;html=1;fillColor=none;" parent="1" vertex="1">
          <mxGeometry x="100" y="80" width="1010" height="550" as="geometry" />
        </mxCell>
        <mxCell id="sKE2e9Na5uxvLtNsa8Tk-1" value="PM Melakukan pengisian ikhtisar proyek dan sp3" style="rounded=1;whiteSpace=wrap;html=1;fontFamily=Verdana;dashed=1;" vertex="1" parent="1">
          <mxGeometry x="140" y="230" width="150" height="70" as="geometry" />
        </mxCell>
        <mxCell id="sKE2e9Na5uxvLtNsa8Tk-2" value="" style="endArrow=classic;html=1;rounded=0;exitX=0.5;exitY=1;exitDx=0;exitDy=0;" edge="1" parent="1" source="c7cechd5nm6Yp6Lk2WkC-6" target="sKE2e9Na5uxvLtNsa8Tk-1">
          <mxGeometry width="50" height="50" relative="1" as="geometry">
            <mxPoint x="200" y="280" as="sourcePoint" />
            <mxPoint x="250" y="230" as="targetPoint" />
          </mxGeometry>
        </mxCell>
        <mxCell id="sKE2e9Na5uxvLtNsa8Tk-3" value="" style="endArrow=classic;html=1;rounded=0;exitX=0.5;exitY=1;exitDx=0;exitDy=0;entryX=0.5;entryY=0;entryDx=0;entryDy=0;" edge="1" parent="1" source="sKE2e9Na5uxvLtNsa8Tk-1" target="c7cechd5nm6Yp6Lk2WkC-20">
          <mxGeometry width="50" height="50" relative="1" as="geometry">
            <mxPoint x="200" y="420" as="sourcePoint" />
            <mxPoint x="250" y="370" as="targetPoint" />
          </mxGeometry>
        </mxCell>
        <mxCell id="sKE2e9Na5uxvLtNsa8Tk-4" value="" style="rounded=0;whiteSpace=wrap;html=1;fillColor=none;" vertex="1" parent="1">
          <mxGeometry x="525" y="87.5" width="180" height="515" as="geometry" />
        </mxCell>
      </root>
    </mxGraphModel>
  </diagram>
</mxfile>
